HIERARCHY
ROOT Hips
{
	OFFSET -14.64140 90.27770 -84.91600
	CHANNELS 6 Xposition Yposition Zposition Zrotation Xrotation Yrotation
	JOINT Spine
	{
		OFFSET 0.00000 13.20850 -1.60436
		CHANNELS 3 Zrotation Xrotation Yrotation
		JOINT Spine1
		{
			OFFSET 0.00000 8.61716 0.00000
			CHANNELS 3 Zrotation Xrotation Yrotation
			JOINT Spine2
			{
				OFFSET 0.00000 8.61717 0.00000
				CHANNELS 3 Zrotation Xrotation Yrotation
				JOINT Spine3
				{
					OFFSET 0.00000 8.61717 0.00000
					CHANNELS 3 Zrotation Xrotation Yrotation
					JOINT Neck
					{
						OFFSET 0.00000 11.07920 1.10792
						CHANNELS 3 Zrotation Xrotation Yrotation
						JOINT Neck1
						{
							OFFSET 0.00000 7.08032 0.00000
							CHANNELS 3 Zrotation Xrotation Yrotation
							JOINT Head
							{
								OFFSET 0.00000 7.08031 0.00000
								CHANNELS 3 Zrotation Xrotation Yrotation
								End site
								{
									OFFSET 0.00000 0.00000 0.00000
								}
							}
						}
					}
					JOINT RightShoulder
					{
						OFFSET -0.01000 7.91373 5.19711
						CHANNELS 3 Zrotation Xrotation Yrotation
						JOINT RightArm
						{
							OFFSET -18.41580 0.00000 0.00000
							CHANNELS 3 Zrotation Xrotation Yrotation
							JOINT RightForeArm
							{
								OFFSET -29.11090 0.00000 0.00000
								CHANNELS 3 Zrotation Xrotation Yrotation
								JOINT RightHand
								{
									OFFSET -24.65040 0.00000 0.00000
									CHANNELS 3 Zrotation Xrotation Yrotation
									JOINT RightHandThumb1
									{
										OFFSET -5.35114 -0.85590 3.97906
										CHANNELS 3 Zrotation Xrotation Yrotation
										JOINT RightHandThumb2
										{
											OFFSET -4.52789 0.00000 0.00000
											CHANNELS 3 Zrotation Xrotation Yrotation
											JOINT RightHandThumb3
											{
												OFFSET -2.46976 0.00000 0.00000
												CHANNELS 3 Zrotation Xrotation Yrotation
												End site
												{
													OFFSET 0.00000 0.00000 0.00000
												}
											}
										}
									}
									JOINT RightHandIndex1
									{
										OFFSET -14.26970 0.00000 2.88139
										CHANNELS 3 Zrotation Xrotation Yrotation
										JOINT RightHandIndex2
										{
											OFFSET -5.48836 0.00000 0.00000
											CHANNELS 3 Zrotation Xrotation Yrotation
											JOINT RightHandIndex3
											{
												OFFSET -3.01859 0.00000 0.00000
												CHANNELS 3 Zrotation Xrotation Yrotation
												End site
												{
													OFFSET 0.00000 0.00000 0.00000
												}
											}
										}
									}
									JOINT RightHandMiddle1
									{
										OFFSET -14.26970 0.00000 -0.09147
										CHANNELS 3 Zrotation Xrotation Yrotation
										JOINT RightHandMiddle2
										{
											OFFSET -6.17441 0.00000 0.00000
											CHANNELS 3 Zrotation Xrotation Yrotation
											JOINT RightHandMiddle3
											{
												OFFSET -3.56743 0.00000 0.00000
												CHANNELS 3 Zrotation Xrotation Yrotation
												End site
												{
													OFFSET 0.00000 0.00000 0.00000
												}
											}
										}
									}
									JOINT RightHandRing1
									{
										OFFSET -12.69180 0.00000 -3.06433
										CHANNELS 3 Zrotation Xrotation Yrotation
										JOINT RightHandRing2
										{
											OFFSET -5.62556 0.00000 0.00000
											CHANNELS 3 Zrotation Xrotation Yrotation
											JOINT RightHandRing3
											{
												OFFSET -3.56744 0.00000 0.00000
												CHANNELS 3 Zrotation Xrotation Yrotation
												End site
												{
													OFFSET 0.00000 0.00000 0.00000
												}
											}
										}
									}
									JOINT RightHandPinky1
									{
										OFFSET -11.11390 0.00000 -6.03719
										CHANNELS 3 Zrotation Xrotation Yrotation
										JOINT RightHandPinky2
										{
											OFFSET -4.52789 0.00000 0.00000
											CHANNELS 3 Zrotation Xrotation Yrotation
											JOINT RightHandPinky3
											{
												OFFSET -2.46976 0.00000 0.00000
												CHANNELS 3 Zrotation Xrotation Yrotation
												End site
												{
													OFFSET 0.00000 0.00000 0.00000
												}
											}
										}
									}
								}
							}
						}
					}
					JOINT LeftShoulder
					{
						OFFSET 0.01000 7.91373 5.19711
						CHANNELS 3 Zrotation Xrotation Yrotation
						JOINT LeftArm
						{
							OFFSET 18.41580 0.00000 0.00000
							CHANNELS 3 Zrotation Xrotation Yrotation
							JOINT LeftForeArm
							{
								OFFSET 29.11090 0.00000 0.00000
								CHANNELS 3 Zrotation Xrotation Yrotation
								JOINT LeftHand
								{
									OFFSET 24.65040 0.00000 0.00000
									CHANNELS 3 Zrotation Xrotation Yrotation
									JOINT LeftHandThumb1
									{
										OFFSET 5.35114 -0.85590 3.97906
										CHANNELS 3 Zrotation Xrotation Yrotation
										JOINT LeftHandThumb2
										{
											OFFSET 4.52789 0.00000 0.00000
											CHANNELS 3 Zrotation Xrotation Yrotation
											JOINT LeftHandThumb3
											{
												OFFSET 2.46977 0.00000 0.00000
												CHANNELS 3 Zrotation Xrotation Yrotation
												End site
												{
													OFFSET 0.00000 0.00000 0.00000
												}
											}
										}
									}
									JOINT LeftHandIndex1
									{
										OFFSET 14.26970 0.00000 2.88139
										CHANNELS 3 Zrotation Xrotation Yrotation
										JOINT LeftHandIndex2
										{
											OFFSET 5.48836 0.00000 0.00000
											CHANNELS 3 Zrotation Xrotation Yrotation
											JOINT LeftHandIndex3
											{
												OFFSET 3.01859 0.00000 0.00000
												CHANNELS 3 Zrotation Xrotation Yrotation
												End site
												{
													OFFSET 0.00000 0.00000 0.00000
												}
											}
										}
									}
									JOINT LeftHandMiddle1
									{
										OFFSET 14.26970 0.00000 -0.09147
										CHANNELS 3 Zrotation Xrotation Yrotation
										JOINT LeftHandMiddle2
										{
											OFFSET 6.17440 0.00000 0.00000
											CHANNELS 3 Zrotation Xrotation Yrotation
											JOINT LeftHandMiddle3
											{
												OFFSET 3.56744 0.00000 0.00000
												CHANNELS 3 Zrotation Xrotation Yrotation
												End site
												{
													OFFSET 0.00000 0.00000 0.00000
												}
											}
										}
									}
									JOINT LeftHandRing1
									{
										OFFSET 12.69180 0.00000 -3.06433
										CHANNELS 3 Zrotation Xrotation Yrotation
										JOINT LeftHandRing2
										{
											OFFSET 5.62556 0.00000 0.00000
											CHANNELS 3 Zrotation Xrotation Yrotation
											JOINT LeftHandRing3
											{
												OFFSET 3.56744 0.00000 0.00000
												CHANNELS 3 Zrotation Xrotation Yrotation
												End site
												{
													OFFSET 0.00000 0.00000 0.00000
												}
											}
										}
									}
									JOINT LeftHandPinky1
									{
										OFFSET 11.11390 0.00000 -6.03719
										CHANNELS 3 Zrotation Xrotation Yrotation
										JOINT LeftHandPinky2
										{
											OFFSET 4.52789 0.00000 0.00000
											CHANNELS 3 Zrotation Xrotation Yrotation
											JOINT LeftHandPinky3
											{
												OFFSET 2.46976 0.00000 0.00000
												CHANNELS 3 Zrotation Xrotation Yrotation
												End site
												{
													OFFSET 0.00000 0.00000 0.00000
												}
											}
										}
									}
								}
							}
						}
					}
					JOINT pCube4
					{
						OFFSET 0.00000 10.91090 1.10792
						CHANNELS 3 Zrotation Xrotation Yrotation
						End site
						{
							OFFSET 0.00000 0.00000 0.00000
						}
					}
				}
			}
		}
	}
	JOINT RightUpLeg
	{
		OFFSET -9.98441 0.00000 0.00000
		CHANNELS 3 Zrotation Xrotation Yrotation
		JOINT RightLeg
		{
			OFFSET 0.00000 -42.11790 0.00000
			CHANNELS 3 Zrotation Xrotation Yrotation
			JOINT RightFoot
			{
				OFFSET 0.00000 -45.00020 -0.00001
				CHANNELS 3 Zrotation Xrotation Yrotation
				JOINT RightForeFoot
				{
					OFFSET 0.00000 -3.74820 0.00000
					CHANNELS 3 Zrotation Xrotation Yrotation
					JOINT RightToeBase
					{
						OFFSET 0.00000 0.06325 14.43120
						CHANNELS 3 Zrotation Xrotation Yrotation
						End site
						{
							OFFSET 0.00000 0.00000 0.00000
						}
					}
				}
			}
		}
	}
	JOINT LeftUpLeg
	{
		OFFSET 9.98441 0.00000 0.00000
		CHANNELS 3 Zrotation Xrotation Yrotation
		JOINT LeftLeg
		{
			OFFSET 0.00000 -42.11800 0.00000
			CHANNELS 3 Zrotation Xrotation Yrotation
			JOINT LeftFoot
			{
				OFFSET 0.00000 -45.00070 0.00000
				CHANNELS 3 Zrotation Xrotation Yrotation
				JOINT LeftForeFoot
				{
					OFFSET 0.00000 -3.74824 0.00000
					CHANNELS 3 Zrotation Xrotation Yrotation
					JOINT LeftToeBase
					{
						OFFSET 0.00000 0.06325 14.43110
						CHANNELS 3 Zrotation Xrotation Yrotation
						End site
						{
							OFFSET 0.00000 0.00000 0.00000
						}
					}
				}
			}
		}
	}
}
MOTION
Frames: 4
Frame Time: 0.050000
-0.015209760836722942 0.014841197639936377 0.002641011554150372 -0.0009962535147137487 0.0074152813114575404 0.003065827963171825 -4.16572077145193 2.6041174510308798 -0.687819966670096 -0.8972362677131134 3.604341598957536 0.3829475898293002 -1.2228489894874865 -1.366238678445351 -0.8941693970909528 -0.1381780203325851 0.20931384379709045 -0.8076096680234833 -0.024921568148335554 10.736745425325706 -0.7272087605615977 -0.12211849800868378 -1.6090315317637547 -4.165369419338522 0.316700202215242 -17.412549876858304 -0.3835370846371975 -2.202650351968987 1.2383292198725953 -13.0905117145891 72.60345485726282 10.472071163342575 10.992766520972035 34.562131592271065 6.043887120456404 95.3442354413083 18.728443412636064 -0.2918465088530943 -3.669943548454823 4.5007876132866365 -0.0947732188148121 -1.5603100160483971 -0.04625014566127063 -0.02595562748479643 -56.21981435854468 0.04086214379475216 -0.0406110412675901 -56.251859086413816 -38.79820358802174 0.04267649869546532 0.02238838211724083 -0.037521331687525875 -0.035788026482187346 0.0013837793859141083 -0.003490160622858316 -0.0288532004301525 0.02987696989543145 -36.657174924568785 -0.01017702762614088 0.04592908595375291 0.007558590030596599 0.036076842269924525 0.04486356206971606 0.009895755703743108 0.04143303921032819 0.019454647077780916 -19.718820059638254 0.04552841430918378 -0.02735815746042464 -0.010020575205583656 0.02437064726417292 0.005801775929947595 -0.005819819856957473 -0.007944797372450987 -0.04023745851851559 24.039455750643285 -0.030504760472007758 -0.03334713323400698 28.82030732149699 -0.009735222675177489 0.021663936931476606 28.890210848837437 0.010698787345920209 -0.02613666877540877 3.246030852230425 1.0173411552183176 11.645001325024996 -69.09156100542596 24.718095990756794 -9.422801945893749 -21.302671060797483 4.693126636849073 -75.64711587845828 -14.313850860586001 0.4937254075506043 1.371022738742649 -0.4755166520090644 0.11478296627861989 -8.15164395823405 -0.02844290007061195 -0.002671892689181986 44.56024783053081 -0.013092091461161944 0.014728491336890633 44.5202711179599 12.45033366616474 0.023721188308737113 0.02623299647224462 0.006521304160813811 0.025385958447229816 -0.02181941360895956 0.034562515410748146 0.03308948055847285 -0.014690754090565685 11.140813123501363 -0.008647878888464047 -0.0026335290125733815 0.01598361062472304 -0.00017661699925512801 -0.0007878308130053414 -0.012558446750222073 0.020366187289277846 0.00520278604889139 4.750026748744065 -0.0331965400046395 0.00520962234444409 0.034977731194164925 -0.002580113113949488 -0.022760785261163177 0.03220482404002583 0.0010658847971149834 0.01645414695603636 -5.637666269930906 -0.008061520120619949 -0.02337256327213415 -6.694975694265047 0.03964289129154708 -0.0016394799284453687 -6.734765119761034 0.04571131374853991 0.017207164318122747 -0.0027411660201815983 0.01967962227663185 0.01119223536591096 8.015618444715912 3.480170905390916 -19.21889043611869 -0.016497351414510884 10.369422934957845 0.06137278925446106 -5.6404053996536785 -15.630279834584169 3.1773409016377 0.03902579761327142 0.010952222578677309 0.022896589601466667 -0.025892450801851114 4.674226502762613 -0.028254569835117812 12.45276886256566 -8.266950986031095 6.903235363269505 -0.012884361587680169 46.34424626037074 0.013836470293380828 -4.334509416704748 -14.742394002893798 -3.785775152853134 -0.03217061259933555 -0.03490407541290714 -0.006096979225715002 -0.045280547746459385 -10.726015987485237 0.04172488373839292 
0.049402067751979244 -0.04345895531937713 0.03362628993376564 -0.027866204823843707 -0.0006834817966339748 0.016618045444588628 -4.140948627140611 2.65254280753652 -0.6786880018370871 -0.939519687778637 3.595573584881518 0.3494506602113955 -1.2402039723728875 -1.3619503170346252 -0.9498553474832779 -0.17640710395314996 0.18305894409057052 -0.8661391564900802 0.023344388946795754 10.653993498094996 -0.809798204869552 -0.07830234315299783 -1.53075586191637 -4.486026893195396 0.29280852313278644 -17.218038868675205 -0.3962318879661851 -2.0786535514274513 1.237746449797206 -12.938184627674628 72.34862650113013 9.93570314850212 10.953920130889616 36.21497399332978 6.1017038205482095 95.71671991487146 19.012568641057882 -0.3052849642735076 -3.9697607163170034 4.527255947460542 -0.11376664558164207 -1.5755486649001207 0.026902437169332098 0.023044417064778503 -56.25803506529851 0.004850444780728471 -0.026748462239077227 -56.24165349357601 -38.76636329961967 -0.037803798188577625 -0.029991916205305898 0.00985941820883371 -0.0209368844857425 -0.0029255101102855356 -0.008308272911132319 -0.012266695894688533 0.0035261793187135017 -36.72086204365267 -0.012061924781719578 -0.011675039137042275 0.04183779082983014 -0.04986265755328108 -0.008542081017744717 0.001136256019115176 -0.020970241419786362 -0.003109456748671777 -19.765214220704422 0.02715185041505295 -0.003721657249956736 -0.013381169825066569 -0.02450243575957231 -0.027497001865839272 -0.04689706466286386 -0.0423946367074831 -0.002393858922931416 24.031719023622745 -0.03501149149119906 -0.03783928102611964 28.901989036168377 -0.03142593030060991 -0.027072046483407636 28.898702464641453 -0.04020069572117617 0.011067216854076441 2.979370792567762 0.9683128452898192 11.452181249039054 -69.13591251311738 24.8857289871867 -8.95022960169234 -20.892908110814442 4.262954575381506 -74.22133434582736 -14.01903484708734 0.2967653139045877 1.5037262758635603 -0.49363462061622215 0.07635350694231105 -8.16125681983994 0.003805209384732071 0.021819949094410495 44.60196589604939 0.0383912746668145 0.02251888139573679 44.612678561857024 12.48629050995222 0.049647873635289205 -0.024042361848920453 0.04840039068810483 0.03677527647768833 0.03298095943764819 0.02320250138309807 -0.025371266715293855 -0.01746596434945793 11.137802212706823 -0.012032896991230425 0.03147555240076488 0.0292240206410743 0.03837133831413912 0.026021996833367332 0.015111654691273563 -0.025977951314483525 0.04808464843559427 4.789020646278678 -0.01595763639135792 0.04661574580520134 0.002653570707739633 -0.018445421794554176 0.029116252105670707 -0.005618465472785076 0.016062808365650598 -0.025689272570947923 -5.569060892578517 -0.0012336389028407757 0.02034797008467188 -6.742451361565546 -0.014826529412672176 -0.036297044268521594 -6.757771493552812 0.03785422509956844 0.010657443683620612 0.005407135162341621 -0.028994925797992278 0.006671636362722414 8.016401508810334 3.461258227241268 -19.222102744015267 -0.005608683969927444 10.3812402971442 0.014380742004553918 -5.600546368866217 -15.676431349867467 3.217362326182384 -0.01939589815849844 0.01508512950775377 -0.042330292118995715 0.01785653933096726 4.721668624810994 0.02639044895865031 12.475449514292205 -8.246333187072128 6.836667312959192 -0.024442945430108998 46.36183895551286 -0.014134895251961665 -4.359066731949486 -14.779814116390686 -3.836054971457673 -0.005716446028072733 -0.041377060611000945 -0.0361075784686156 -0.02317567121817572 -10.72152320766839 -0.017824641401655333 
-0.034123287418590366 0.03449570711740451 0.03916176668497133 0.014764385395941075 -0.0062425884958937465 -0.015072541071352936 -4.234824447005159 2.558605275337843 -0.6921025196863247 -0.8647440794868185 3.567707411798966 0.40731508513355713 -1.2466980946420352 -1.3718799235954462 -1.0676249183366944 -0.1322022621095824 0.23524130147658542 -0.9134550598815793 0.05539151864565274 10.692683711183202 -0.8527595448550318 -0.0918139353343824 -1.374679761275513 -4.530482950969834 0.2903882067458986 -17.00147805842504 -0.33085618201446615 -2.0701796462250823 1.2078927527960204 -12.881909907165523 72.15169609437572 9.588997916683262 10.921744365728406 37.67418901088546 6.089628934191863 95.92687240999858 19.00415791452813 -0.28010053964424125 -4.082593248145805 4.481646510944059 -0.1462391705047843 -1.5798808527849424 0.009684886117069968 0.0056798146129143955 -56.20536921924016 -0.015919999408932167 0.019972951820683343 -56.22003620244841 -38.777688893540024 -0.012520370977229967 -0.03533518678010474 -0.04218459157434955 -0.02104036068424664 -0.04327246411299256 0.008860105767354024 0.014243057164532932 -0.048466391427907284 -36.69427983609174 0.0367614774113535 0.01761501836438424 -0.044110151758637195 0.03665801827189139 -0.02108795303059648 -0.03655768419274114 0.03669441984540933 -0.02353336165576299 -19.72850086778473 0.028847451076343584 -0.029081106438179346 -0.018330096991069935 -0.01915871388813931 -0.01653105224680382 -0.044050480980255304 0.003321636231977103 -0.012609337431366309 24.04601250408365 0.004425241506694899 0.0448909113680856 28.888851358143075 0.028959686313521433 0.0025259808429182857 28.861283219681223 -0.015030490113546712 0.04454027970692007 2.9182492845606833 1.016802962977138 11.374752234317473 -69.15179594120374 25.164995140389042 -8.585835329888862 -20.66480041437173 4.158231641482672 -73.41173039152814 -13.721034187271087 0.2049015020639278 1.660726139789101 -0.51370760086168 0.08764500548542134 -8.123909963624747 -0.010010027304172036 0.013641680981740024 44.566570673791254 -0.014640340098587888 -0.03939428289627851 44.59048288833304 12.43517321294523 -0.046400300577601264 0.022334249196402808 -0.03463457189067948 0.009287418918343757 0.02969544507257818 0.00466029964336812 0.03225236350687656 0.019556982211734294 11.110848151557349 -0.022357931057120393 0.03530119544611773 -0.04008000527917476 0.0006006511547992317 0.031475616968095456 -0.025468604354783677 -0.025422793380570248 0.035531509375619615 4.7700638274933445 0.03744210477988774 -0.04374966836256443 0.02485843426835917 -0.037320894452227325 0.024193359540772733 -0.00964256012608559 0.03676436537593794 0.015726976961624062 -5.5977158290146285 -0.048812199750729215 0.008343315849593233 -6.740491583294539 0.049959958557372626 -0.0058049866495015175 -6.736803013635504 0.01765919131690471 0.005648798159373554 0.04733967513847493 -0.01660273840391158 -0.02973369343872108 8.066974782553205 3.5032863090199338 -19.194891210486762 -0.0002635486149385676 10.441421268273197 0.043375236781159884 -5.644912145850831 -15.699833548686989 3.179725759474901 0.0446916552949937 0.03627357463612672 0.04152964210425444 -0.024469184276523556 4.704391922494831 -0.03213774774141963 12.489270477122327 -8.21717406173964 6.929808435745389 -0.014546141868814758 46.35489068161783 -0.014062809876413278 -4.304483428661722 -14.73740547281872 -3.7932784304884555 -0.01348194500139539 0.01134408831845149 0.022078489931757386 -0.04744768921783033 -10.69910213955855 0.025848976209899906 
0.0036202767535309203 -0.04749275470545447 -0.007484234085289228 -0.0422232931946415 -0.04442759615858118 -0.04934875641699549 -4.216342966563607 2.340758586825914 -0.6263083381145922 -0.8960716610205706 3.538331908307682 0.3788552919582094 -1.2195991325655338 -1.4433799708624426 -1.0212445097486367 -0.15960797852799227 0.2985836323843502 -0.8714877487021897 0.06877376195051742 10.927367447638552 -0.8467085742980994 -0.058466164070913616 -1.2329001696134354 -4.48183398461514 0.3173871848640365 -16.787924734126136 -0.31471008384350013 -2.207985111068079 1.2397693894323252 -12.959422500143717 72.14781191283595 9.328802758890193 10.986854361783708 39.074172751511334 6.097632238007924 96.07404694183494 18.90452384341476 -0.24852744541869703 -4.093927034784872 4.572017643439038 -0.07851358627660893 -1.6156426018675323 -0.016004547073875934 -0.0180446033339642 -56.214151539364124 -0.037204041450885836 0.038786654206435574 -56.21206755913942 -38.77957124890708 -0.04289568539818039 0.0030721104077409992 -0.0018574151172359706 0.006722639058328004 0.0382711252980411 -0.017464933037324364 0.028528423906231122 -0.031213398556721922 -36.665432468125886 -0.00015539593853082265 0.008474126335448867 0.01647944081377742 -0.04156024366041548 0.04840349637091628 -0.008700471425411922 -0.02618340785678355 -0.01809049974977605 -19.72852844651525 -0.028908112786364272 -0.002028971660967375 -0.011141501957975438 0.002788479600749923 -0.031643946210114106 0.002915934362755255 -0.00423323838391341 0.014071419045105862 24.09068993708581 0.0066761906150981576 -0.042555110054488886 28.862049859907064 0.014765407813316263 0.017048055955279726 28.85645119895054 -0.015551426344208055 -0.00016676683806620993 3.001081900902652 0.9685194663682516 11.433075753492306 -69.10005434237893 25.396721017223815 -8.46990430553519 -20.71512838065472 4.418440701523132 -73.21711852100731 -13.38990551345336 0.1917819134146693 1.7064308089063045 -0.4781933554132749 0.11386014204140724 -8.089083103001794 -0.03992412372483023 -0.023983292181416132 44.594924886324726 -0.005065082920763816 -0.04599635088713263 44.540462076191574 12.428171197210986 -0.03732138038578896 -0.04556655895337921 -0.0007532093785726028 0.04636540325222676 -0.019044199729435975 -0.014645457659135313 0.000145258364731718 -0.017802626055871965 11.122481327393485 -0.00784864670559668 0.034450768315608324 -0.030092869216043473 -0.017398431548758378 0.003587847930704255 -0.017306090519412422 -0.04395072055574178 -0.017128011739123244 4.7354284847843235 -0.023820630564468398 0.03201998445002682 -0.004770941210292773 0.034167211609057356 0.018657757988189774 -0.026562114163097623 0.043441961035199636 -0.023435470516250966 -5.635540002853981 0.0035685996475835007 0.019681899441067102 -6.685597024900045 -0.016266028426277362 0.030743978703760992 -6.732069185970844 -0.041206312208490914 0.030131201356795978 -0.009039964534184333 0.015728218067911734 0.04168559281477511 8.021448642704485 3.528924168936485 -19.185178604633393 0.013814858983982515 10.42864806099516 0.0605714913494097 -5.621388710609578 -15.685387972067184 3.154621968531605 -0.02364005270647977 0.0406105000266004 0.01562010681602144 0.032501271550144484 4.647867806665488 0.035165764793092996 12.470334440557885 -8.19233898471817 6.897291485564409 -0.017298754868789335 46.36233670182186 0.04375660440972312 -4.337527821306839 -14.776867210016704 -3.8485894153908076 -0.021849114527307964 0.018867516861043543 0.02830533758573609 -0.027023781169430088 -10.754251749375822 0.01138316206312313 
